# xmcd CD database file
#
# Track frame offsets:
#	150
#	16077
#	32057
#	48281
#	63651
#	81717
#	99031
#	116205
#	129128
#	151765
#
# Disc length: 2267 seconds
#
# Revision: 0
# Processed by: cddbd v1.5.2PL0 Copyright (c) Steve Scherf et al.
# Submitted via: CDex 1.70beta2
#
DISCID=7408d90a
DTITLE=Pam Tillis - Pam Tillis
DYEAR=2005
DGENRE=Country
TTITLE0=Mi Vida Loca
TTITLE1=Shake The Sugar Tree
TTITLE2=Don't Tell Me What To Do
TTITLE3=Cleopatra
TTITLE4=Last Train To Clarksville
TTITLE5=Mandolin Rain
TTITLE6=That Was A Heartache
TTITLE7=I Said A Prayer
TTITLE8=Maybe It Was Memphis
TTITLE9=Go Your Own Way
EXTD=YEAR: 2005
EXTT0=
EXTT1=
EXTT2=
EXTT3=
EXTT4=
EXTT5=
EXTT6=
EXTT7=
EXTT8=
EXTT9=
PLAYORDER=
